<?xml version="1.0" standalone="no"?>
<!DOCTYPE svg PUBLIC "-//W3C//DTD SVG 20010904//EN"
 "http://www.w3.org/TR/2001/REC-SVG-20010904/DTD/svg10.dtd">
<svg version="1.0" xmlns="http://www.w3.org/2000/svg"
 width="677.000000pt" height="369.000000pt" viewBox="0 0 677.000000 369.000000"
 preserveAspectRatio="xMidYMid meet">

<g transform="translate(0.000000,369.000000) scale(0.100000,-0.100000)"
fill="#000000" stroke="none">
<path d="M5310 2234 c0 -4 32 -62 70 -129 39 -67 70 -129 70 -138 0 -24 -20
-26 -138 -15 -105 10 -112 9 -137 -10 -25 -20 -38 -20 -863 -23 -1196 -4
-2325 2 -2337 12 -5 5 -25 9 -45 9 -23 0 -31 -3 -21 -9 7 -5 22 -6 34 -3 17 4
19 2 13 -14 -4 -10 -10 -31 -13 -47 -4 -22 -8 -25 -19 -16 -9 7 -12 21 -8 38
l6 26 -21 -25 c-11 -14 -23 -33 -27 -42 -3 -10 -10 -18 -15 -18 -17 0 -9 47
12 74 l20 26 -23 0 c-13 0 -33 3 -45 6 -13 4 -23 2 -23 -4 0 -5 11 -9 25 -9
31 0 40 -7 30 -23 -6 -9 -10 -9 -17 1 -8 11 -9 10 -4 -3 3 -10 2 -27 -2 -38
-7 -18 -9 -16 -21 16 -13 37 -14 37 -26 14 -7 -13 -10 -31 -7 -39 3 -9 1 -12
-5 -8 -7 4 -10 27 -8 52 2 34 -1 45 -12 45 -8 0 -53 34 -101 75 -48 41 -91 75
-97 75 -5 0 15 -22 45 -48 30 -26 70 -62 90 -79 l35 -32 -42 -1 c-34 0 -46 5
-68 31 -31 37 -44 34 -15 -4 l21 -26 -121 1 c-66 0 -120 4 -120 8 0 4 -7 7
-15 7 -8 0 -12 -3 -10 -7 10 -16 -62 -7 -80 10 -11 10 -45 40 -75 66 l-55 48
53 -55 c29 -30 49 -59 45 -64 -5 -4 -3 -5 4 -1 6 3 14 2 18 -4 3 -5 -2 -10
-12 -10 -10 0 -53 37 -96 83 -43 45 -96 101 -118 125 l-41 42 31 0 c16 0 65
-5 107 -11 70 -11 81 -16 129 -58 28 -25 77 -68 108 -94 31 -27 57 -53 57 -58
0 -6 -5 -7 -12 -3 -7 4 -8 3 -4 -4 4 -6 13 -9 21 -6 8 4 12 10 9 15 -3 5 1 9
8 9 7 1 3 6 -10 13 -25 15 -105 140 -92 145 8 3 90 -17 135 -33 19 -6 19 -6 3
8 -18 14 -165 53 -173 46 -2 -3 10 -26 26 -53 17 -26 29 -49 27 -51 -2 -2 -30
21 -63 51 -33 30 -74 61 -91 69 -34 15 -310 49 -325 39 -6 -3 0 -19 14 -37 13
-18 27 -39 32 -47 8 -13 7 -13 -12 0 -12 8 -42 33 -68 55 -42 35 -55 40 -119
47 -93 9 -271 10 -280 1 -4 -4 58 -71 136 -150 l143 -143 -92 0 c-69 0 -95 -4
-107 -15 -30 -31 -32 -118 -2 -137 6 -4 22 -8 35 -8 40 0 10 -23 -88 -65 -50
-22 -91 -43 -91 -47 0 -5 61 -8 135 -8 74 0 135 -3 135 -7 -1 -17 -27 -54 -75
-105 -27 -29 -61 -66 -75 -82 l-24 -29 163 6 164 5 56 56 c31 31 60 56 64 56
4 0 -4 -20 -19 -45 -14 -25 -24 -49 -20 -52 13 -13 382 50 434 74 18 9 52 38
74 64 23 27 43 47 45 45 2 -2 -4 -20 -13 -40 -10 -19 -15 -38 -12 -41 3 -3 30
5 59 18 30 13 65 27 80 30 14 4 62 38 107 78 51 44 88 69 97 65 8 -3 39 -1 67
4 35 7 65 7 87 0 27 -7 38 -6 51 5 14 13 177 15 1231 16 668 1 1381 -1 1586
-3 335 -3 373 -5 390 -20 18 -16 29 -17 131 -6 167 17 173 6 82 -147 -73 -123
-84 -144 -79 -150 5 -5 152 26 238 51 42 11 62 23 76 45 20 29 48 38 60 19 12
-19 51 -10 220 51 167 60 490 214 490 234 0 19 -340 180 -494 234 -152 53
-155 54 -184 37 -16 -9 -30 -15 -31 -14 -1 2 -7 15 -14 30 -9 23 -25 31 -94
51 -150 44 -268 66 -268 51z m271 -65 c73 -20 76 -22 90 -60 l15 -40 28 26 29
26 146 -52 c80 -28 222 -88 316 -133 l169 -81 -89 -5 c-70 -4 -95 -2 -110 10
-15 11 -17 11 -8 1 10 -12 -8 -24 -106 -71 -149 -73 -198 -87 -66 -20 55 28
111 58 124 67 l25 16 -73 33 c-40 19 -77 34 -82 34 -5 0 -9 4 -9 10 0 11 68
-12 121 -42 21 -12 41 -19 44 -16 3 3 -30 22 -74 44 -44 21 -77 43 -73 49 3 5
-2 4 -11 -4 -10 -7 -17 -9 -17 -3 0 6 -19 17 -42 26 -63 23 -319 86 -328 81
-4 -2 -30 1 -58 9 -41 10 -49 10 -45 -1 3 -7 8 -13 12 -13 3 0 7 -18 8 -41 3
-54 -12 -42 -33 27 -14 43 -31 67 -81 115 -35 33 -63 62 -63 64 0 3 142 -29
241 -56z m-4577 -25 c3 -8 2 -12 -4 -9 -6 3 -10 10 -10 16 0 14 7 11 14 -7z
m4656 -126 c0 -6 17 -8 43 -4 25 3 62 0 92 -8 l50 -14 -57 2 c-32 1 -58 -1
-58 -5 0 -4 -17 -14 -37 -22 -21 -9 -32 -16 -25 -16 7 -1 26 6 43 14 25 13 35
14 64 3 26 -9 34 -17 30 -29 -6 -18 53 -69 80 -69 14 0 12 6 -10 31 -14 17
-24 34 -21 36 2 2 26 -4 53 -15 26 -11 62 -25 80 -32 34 -13 53 -40 28 -40 -9
0 -24 -5 -34 -12 -11 -6 -26 -8 -37 -3 -18 7 -18 8 -1 12 9 3 17 9 17 15 0 6
-9 4 -22 -4 -29 -18 -71 -10 -163 33 -39 18 -76 33 -82 32 -7 0 -13 3 -13 7 0
8 -49 25 -62 22 -14 -3 -8 19 6 24 21 8 28 34 15 50 -10 12 -9 13 5 8 9 -3 16
-11 16 -16z m265 -42 c22 -10 35 -22 35 -33 -1 -17 -1 -17 -14 0 -7 9 -31 24
-52 31 -22 8 -31 15 -21 15 10 1 33 -6 52 -13z m-505 -56 c36 -4 74 -12 84
-16 14 -5 17 -4 11 5 -10 17 31 10 180 -29 l110 -28 -95 3 c-52 2 -104 6 -114
11 -14 5 -17 4 -12 -4 7 -12 -13 -18 -44 -13 -8 1 -39 4 -69 6 -29 1 -56 7
-60 13 -4 7 -19 7 -47 0 -55 -15 -98 -4 -91 23 4 15 1 19 -11 17 -9 -2 -18
-13 -20 -26 -2 -12 -7 -22 -12 -22 -8 0 -12 10 -26 60 -3 13 8 15 74 12 42 -2
106 -7 142 -12z m-4715 -25 c0 -5 4 -16 8 -22 5 -9 3 -13 -7 -13 -9 0 -16 8
-17 18 0 15 -1 14 -8 -3 -6 -16 -16 -19 -55 -16 -55 3 -94 21 -88 39 5 16 167
13 167 -3z m175 -1 c0 -2 -33 -3 -72 -3 -58 2 -65 3 -33 8 39 6 105 3 105 -5z
m505 6 l-170 -6 190 -3 c131 -3 173 -6 135 -11 -65 -8 -408 -3 -500 7 l-65 7
60 7 c33 3 164 5 290 5 l230 0 -170 -6z m3248 -9 c91 -23 198 -32 342 -27 127
4 141 3 90 -6 -33 -6 -143 -12 -245 -13 -102 -1 -219 -5 -260 -8 -70 -6 -71
-6 -21 4 65 11 66 12 47 32 -14 14 -103 33 -112 24 -3 -3 15 -8 40 -11 25 -4
48 -11 51 -16 9 -14 -50 -22 -81 -10 -16 6 -45 9 -64 5 -23 -4 -30 -3 -21 4
17 11 -329 13 -524 2 -116 -7 -87 -8 165 -7 194 0 323 -3 355 -10 48 -11 49
-12 15 -14 -19 -1 -75 -2 -125 -2 -49 1 -202 1 -340 2 -164 0 -245 4 -235 10
10 7 -19 10 -90 12 -94 1 -98 2 -45 8 33 4 53 8 45 9 -20 4 -36 3 -95 -4 -42
-6 -47 -8 -30 -18 11 -6 34 -10 50 -8 17 1 41 -2 55 -7 19 -7 -1 -10 -77 -10
-56 -1 -105 3 -108 8 -4 6 8 10 26 10 48 0 31 7 -33 13 -54 5 -81 -6 -40 -16
9 -3 -37 -5 -103 -6 -81 0 -115 2 -105 9 11 7 2 10 -33 10 -27 0 -46 -4 -43
-9 9 -15 -225 0 -256 15 -31 16 -138 18 -186 5 -18 -6 -76 -12 -130 -15 -53
-4 -131 -9 -174 -12 -42 -3 -87 -2 -100 2 -21 7 -19 9 17 15 22 4 65 8 96 8
31 1 78 4 105 8 l49 8 -45 6 c-27 4 -5 6 55 4 55 -1 136 0 180 4 144 11 1893
4 1938 -8z m484 3 c6 -19 -278 -26 -385 -10 -52 8 -95 16 -97 18 -2 1 105 3
238 3 160 -1 242 -4 244 -11z m-3412 -4 c16 -7 13 -9 -17 -9 -21 -1 -38 4 -38
9 0 12 27 12 55 0z m434 -6 c2 -2 -35 -4 -82 -4 -51 0 -87 4 -87 10 0 9 159 4
169 -6z m79 -11 c-10 -2 -28 -2 -40 0 -13 2 -5 4 17 4 22 1 32 -1 23 -4z
m-924 -48 c-17 -14 -16 -14 13 0 26 12 69 15 220 14 l188 -1 -80 -41 c-68 -34
-176 -77 -193 -77 -3 0 11 17 31 37 21 20 37 40 37 44 0 4 -41 -15 -90 -41
-97 -52 -179 -71 -205 -50 -8 7 -12 16 -9 21 9 16 -3 10 -17 -8 -8 -10 -9 -14
-2 -10 6 4 14 3 17 -2 6 -9 -27 -14 -157 -25 l-58 -5 28 22 c15 12 68 48 118
79 73 46 98 57 134 57 42 1 44 0 25 -14z m4571 -21 c23 -9 -29 -35 -66 -32
-29 2 -41 18 -14 18 8 0 15 5 15 10 0 11 39 13 65 4z m-149 -63 c-4 -5 -1 -11
5 -13 7 -2 0 -12 -15 -22 -27 -17 -27 -17 -17 2 9 17 8 19 -9 15 -11 -3 -17
-9 -14 -14 3 -5 -1 -9 -9 -9 -21 0 -29 27 -10 34 8 3 20 3 25 -1 7 -3 8 -1 4
5 -5 8 2 12 19 12 14 0 24 -4 21 -9z m162 -36 c-6 -14 -13 -23 -15 -21 -5 5
15 46 22 46 3 0 -1 -11 -7 -25z m157 -20 c-27 -13 -54 -24 -60 -24 -5 0 13 11
40 25 28 13 55 23 60 23 6 0 -12 -11 -40 -24z m-4457 -34 c-7 -11 -16 -17 -20
-15 -4 3 -8 0 -8 -7 0 -7 -3 -9 -7 -6 -7 7 26 45 40 46 4 1 2 -8 -5 -18z
m-250 -46 c-6 -14 -22 -32 -35 -41 -24 -15 -24 -15 -12 7 10 19 47 57 56 59 2
0 -3 -11 -9 -25z m4247 10 c-22 -8 -49 -13 -60 -13 -11 0 0 6 25 13 59 17 87
17 35 0z m-4317 -7 c-3 -15 -40 -37 -50 -31 -15 8 -8 32 10 36 32 8 42 7 40
-5z m4567 -3 c-42 -18 -81 -29 -73 -20 8 8 79 34 93 34 6 0 -3 -6 -20 -14z
m-340 -5 c3 -5 1 -10 -4 -10 -6 0 -11 5 -11 10 0 6 2 10 4 10 3 0 8 -4 11 -10z
m220 -10 c10 -11 14 -20 8 -20 -5 0 -18 9 -28 20 -10 11 -14 20 -8 20 5 0 18
-9 28 -20z m-4355 -25 c-21 -25 -32 -17 -13 9 10 13 20 20 21 15 2 -5 -2 -16
-8 -24z m-210 -6 c0 -8 4 -8 14 0 11 9 13 7 12 -10 0 -12 6 -24 14 -26 13 -4
13 -3 0 6 -10 7 -11 11 -3 11 7 0 10 7 7 15 -4 8 -2 15 3 15 6 0 9 -12 8 -27
-1 -26 -4 -28 -43 -27 -23 1 -39 -2 -36 -7 3 -5 -2 -6 -10 -3 -14 5 -14 9 1
35 18 30 33 38 33 18z m4471 -7 c-7 -13 -39 -26 -103 -42 -51 -12 -99 -25
-107 -28 -8 -3 -12 -1 -8 5 4 6 50 21 103 34 53 12 98 29 101 36 3 7 9 13 14
13 6 0 6 -7 0 -18z"/>
<path d="M3190 1860 c-8 -5 -10 -10 -5 -10 6 0 17 5 25 10 8 5 11 10 5 10 -5
0 -17 -5 -25 -10z"/>
<path d="M3293 1853 c9 -2 23 -2 30 0 6 3 -1 5 -18 5 -16 0 -22 -2 -12 -5z"/>
<path d="M1244 1794 c-18 -14 -18 -15 4 -4 12 6 22 13 22 15 0 8 -5 6 -26 -11z"/>
<path d="M1245 1764 l-30 -26 33 22 c17 12 32 23 32 26 0 7 -4 5 -35 -22z"/>
<path d="M1173 1754 c-24 -14 -43 -27 -43 -30 0 -6 67 33 85 48 17 15 1 8 -42
-18z"/>
<path d="M1527 1995 c26 -30 52 -55 58 -55 5 0 -15 25 -45 55 -30 30 -56 55
-58 55 -2 0 18 -25 45 -55z"/>
</g>
</svg>
