<svg width="400" height="100" viewBox="0 0 400 100" fill="none" xmlns="http://www.w3.org/2000/svg">
  <defs>
    <linearGradient id="woodGradient" x1="80" y1="45" x2="80" y2="55" gradientUnits="userSpaceOnUse">
      <stop offset="0%" stop-color="#8B5A2B"/> <stop offset="50%" stop-color="#A67B5B"/> <stop offset="100%" stop-color="#6F4E37"/> </linearGradient>
    <linearGradient id="metalGradient" x1="350" y1="30" x2="400" y2="50" gradientUnits="userSpaceOnUse">
      <stop offset="0%" stop-color="#E6E6E6"/> <stop offset="50%" stop-color="#9BAAB5"/> <stop offset="100%" stop-color="#5F717D"/> </linearGradient>
  </defs>

  <path d="M85 54H345C347.2 54 349 52.2 349 50C349 47.8 347.2 46 345 46H85C82.8 46 81 47.8 81 50C81 52.2 82.8 54 85 54Z" fill="url(#woodGradient)"/>
  <path d="M85 55H345C347.761 55 350 52.7614 350 50C350 47.2386 347.761 45 345 45H85C82.2386 45 80 47.2386 80 50C80 52.7614 82.2386 55 85 55Z" stroke="#3E2723" stroke-width="2.5"/>
  <path d="M100 48C120 47 150 49 180 48M220 52C250 53 280 51 310 52M140 50H160" stroke="#5D4037" stroke-width="1.5" stroke-linecap="round" opacity="0.6"/>

  <g stroke="#3E2723" stroke-width="2" stroke-linejoin="round">
    <path d="M85 53L30 75C30 75 45 60 55 53H85Z" fill="#C62828"/> <path d="M45 69L55 63M52 65L62 59" stroke="#8E0000" stroke-width="1" opacity="0.5"/> <path d="M85 47L30 25C30 25 45 40 55 47H85Z" fill="#C62828"/>
    <path d="M45 31L55 37M52 35L62 41" stroke="#8E0000" stroke-width="1" opacity="0.5"/>

    <path d="M90 50L40 50L55 35H80L90 50Z" fill="#FFECB3"/> 
    <path d="M90 50L40 50L55 65H80L90 50Z" fill="#FFECB3"/>
    <path d="M40 50H90" stroke="#3E2723" stroke-width="2"/> </g>

  <rect x="80" y="43" width="14" height="14" rx="3" fill="#D7CCC8" stroke="#5D4037" stroke-width="2"/>
  <path d="M82 45L92 55M82 48L92 58M82 51L92 61" stroke="#5D4037" stroke-width="1.5"/> 
  
  <g>
    <path d="M350 50 L365 25 L400 50 L365 75 Z" fill="url(#metalGradient)" stroke="#263238" stroke-width="2.5" stroke-linejoin="round"/>
    
    <path d="M350 50 H398" stroke="#263238" stroke-width="2" stroke-linecap="round"/>
    
    <path d="M370 30 L395 48" stroke="white" stroke-width="2" stroke-linecap="round" opacity="0.8"/>
  </g>
</svg>